<svg width="28" height="25" viewBox="0 0 28 25" fill="none" xmlns="http://www.w3.org/2000/svg">
<path fill-rule="evenodd" clip-rule="evenodd" d="M21.5858 7.98982C20.1721 5.04029 17.2249 3.00757 13.2934 3.00757C7.67876 3.00757 4.17676 7.15345 4.17676 12.1948C4.17676 15.4133 5.55629 18.2436 8.0238 19.8843C8.1644 19.7791 8.24908 19.7108 8.24908 19.7108C9.47985 18.9077 10.6805 18.0624 11.849 17.1765C9.64761 16.5287 8.53594 14.4223 8.53594 12.1948C8.53594 9.54984 10.1834 6.97499 13.3253 6.97499C16.0922 6.97499 17.9025 9.26865 18.0972 11.7501C19.31 10.5464 20.474 9.29205 21.5858 7.98982ZM12.8834 21.3736C16.365 18.9057 19.5843 16.0867 22.4884 12.9631C22.156 17.6796 18.7568 21.382 13.3285 21.382C13.1785 21.382 13.0302 21.3792 12.8834 21.3736Z" fill="#8DD3BB"/>
<path d="M25.1412 0.537909C20.6864 -1.10005 17.4839 2.42443 17.4839 2.42443L20.5207 4.18985C21.6583 3.53658 22.1649 4.17073 22.2956 4.51808C22.388 4.76346 22.2637 5.03114 22.1649 5.17772L21.4257 6.11142C17.4361 10.9233 12.7455 15.1043 7.51005 18.5204C7.51005 18.5204 5.92953 19.7951 5.08829 19.8142C4.38088 19.8301 4.06541 19.2342 4.66129 18.3802L3.19548 15.0724C3.19548 15.0724 -0.618801 17.5707 0.120475 21.962C0.432756 23.8167 2.17579 25.1359 4.02717 24.8013C4.97357 24.6324 6.14303 24.1704 7.57378 23.2239L10.2059 21.5031C15.4413 18.0806 20.1351 13.8869 24.1215 9.06867L25.0264 7.97564C26.3903 6.42372 27.0021 5.14586 27.2092 4.13568C27.5279 2.59014 26.6133 1.07965 25.1412 0.537909Z" fill="#8DD3BB"/>
</svg>
